# File created by Blade
# Date/Time:  Tue Apr 07 20:22:14 2015
# Frame Rate: 120.000 fps
#------------------------------------------------------
:FULLY-SPECIFIED
:DEGREES
1784
root 2.409703 32.768821 -9.514579 16.802658 1.907352 0.612453
Spine -16.018498 -4.900166 -2.630866
Head 15.384673 -5.385669 -0.033174
LeftShoulder -18.418858 46.499101 5.902234
LeftArm 49.962854 15.531921 -79.488616
LeftForeArm -4.616548 -0.000000 17.698081
LeftHand 7.916779 -0.000000 0.501498
LeftHandThumb1 -26.253704 0.000000 33.147579
RightShoulder -6.160658 -11.168104 -15.426927
RightArm 11.412987 -16.746769 90.836100
RightForeArm 6.669608 -0.000000 17.806459
RightHand 5.749795 -0.000000 7.347041
RightHandThumb1 -24.326973 -0.000000 -32.862282
LeftUpLeg -16.461977 -6.409117 -0.538741
LeftLeg 3.564607 -0.000000 -0.000000
LeftFoot -8.838005 7.582792 -16.752254
LeftToeBase -4.761797 -0.000000 0.000000
RightUpLeg -11.971512 -5.447505 -1.362483
RightLeg -2.393907 -0.000000 0.000000
RightFoot -8.037826 -4.779062 9.473636
RightToeBase 3.690186 -0.000000 -0.000000
1785
root 2.390560 32.771705 -9.538308 16.964137 1.898587 0.695749
Spine -16.068522 -4.942788 -2.647277
Head 15.025767 -5.369508 0.024961
LeftShoulder -18.479512 46.350410 5.840397
LeftArm 49.980773 15.590540 -79.604861
LeftForeArm -4.213408 0.000000 17.618620
LeftHand 8.053433 -0.000000 0.971797
LeftHandThumb1 -26.253704 0.000000 33.147579
RightShoulder -6.201009 -11.236780 -15.461311
RightArm 11.268580 -16.515488 90.961223
RightForeArm 6.761113 -0.000000 17.943032
RightHand 5.764530 -0.000000 7.869634
RightHandThumb1 -24.326973 -0.000000 -32.862282
LeftUpLeg -16.981785 -7.020020 -0.449312
LeftLeg 4.193508 -0.000000 -0.000000
LeftFoot -9.144931 8.285041 -16.553728
LeftToeBase -4.969200 -0.000000 0.000000
RightUpLeg -12.277895 -5.549213 -1.398171
RightLeg -2.166120 -0.000000 0.000000
RightFoot -8.170221 -4.566771 9.651229
RightToeBase 3.871878 -0.000000 -0.000000
1786
root 2.369700 32.774654 -9.563036 17.109589 1.913950 0.744334
Spine -16.092602 -4.980072 -2.636309
Head 14.672489 -5.349208 0.106520
LeftShoulder -18.485882 46.194259 5.832236
LeftArm 49.970541 15.576710 -79.759439
LeftForeArm -3.747637 -0.000000 17.597338
LeftHand 8.026823 -0.000000 1.089738
LeftHandThumb1 -26.253704 0.000000 33.147579
RightShoulder -6.250164 -11.292843 -15.506420
RightArm 11.110673 -16.254953 91.087293
RightForeArm 6.552615 0.000000 18.061423
RightHand 5.636295 0.000000 7.461474
RightHandThumb1 -24.326973 -0.000000 -32.862282
LeftUpLeg -17.479504 -7.816438 -0.268109
LeftLeg 4.790240 -0.000000 -0.000000
LeftFoot -9.512249 9.154441 -16.443759
LeftToeBase -5.076314 -0.000000 0.000000
RightUpLeg -12.595849 -5.805847 -1.355779
RightLeg -1.895051 -0.000000 0.000000
RightFoot -8.262720 -4.228957 9.763041
RightToeBase 3.965589 -0.000000 -0.000000
1787
root 2.351080 32.778183 -9.587604 17.224252 1.893367 0.770938
Spine -16.066042 -4.940640 -2.629390
Head 14.299517 -5.403370 0.216591
LeftShoulder -18.401834 46.078030 5.883644
LeftArm 49.964584 15.496301 -79.940240
LeftForeArm -3.524917 0.000000 17.626553
LeftHand 7.924322 -0.000000 1.250901
LeftHandThumb1 -26.253704 0.000000 33.147579
RightShoulder -6.324342 -11.338765 -15.553120
RightArm 10.946455 -15.930105 91.201955
RightForeArm 6.607457 -0.000000 18.127663
RightHand 5.552553 0.000000 7.569000
RightHandThumb1 -24.326973 -0.000000 -32.862282
LeftUpLeg -17.965664 -8.446423 -0.100885
LeftLeg 5.430198 -0.000000 -0.000000
LeftFoot -9.866395 9.820442 -16.446948
LeftToeBase -5.158723 -0.000000 0.000000
RightUpLeg -12.798558 -5.819879 -1.358639
RightLeg -1.801536 -0.000000 0.000000
RightFoot -8.293524 -4.109020 9.954152
RightToeBase 4.131610 -0.000000 -0.000000
1788
root 2.327770 32.783276 -9.613686 17.332043 1.890933 0.767844
Spine -16.013563 -4.963521 -2.599444
Head 13.909988 -5.391502 0.357084
LeftShoulder -18.428994 45.970008 5.882053
LeftArm 49.986506 15.396876 -80.083787
LeftForeArm -3.399536 -0.000000 17.647945
LeftHand 8.012921 -0.000000 1.200617
LeftHandThumb1 -26.253704 0.000000 33.147579
RightShoulder -6.343524 -11.371684 -15.580825
RightArm 10.808748 -15.682223 91.257487
RightForeArm 6.707919 -0.000000 18.198533
RightHand 5.752002 -0.000000 7.388670
RightHandThumb1 -24.326973 -0.000000 -32.862282
LeftUpLeg -18.662172 -8.559190 -0.065422
LeftLeg 6.548426 -0.000000 -0.000000
LeftFoot -10.226163 10.121149 -16.133341
LeftToeBase -5.360015 -0.000000 0.000000
RightUpLeg -12.985029 -5.774794 -1.330654
RightLeg -1.726556 -0.000000 0.000000
RightFoot -8.299553 -4.071541 10.175169
RightToeBase 4.250640 -0.000000 -0.000000
1789
root 2.312041 32.787462 -9.636421 17.387723 1.873777 0.772604
Spine -15.899038 -4.963357 -2.571604
Head 13.517341 -5.381527 0.486496
LeftShoulder -18.410065 45.853861 5.917614
LeftArm 49.989412 15.317858 -80.195770
LeftForeArm -3.230341 -0.000000 17.681579
LeftHand 8.065678 -0.000000 1.250054
LeftHandThumb1 -26.253704 0.000000 33.147579
RightShoulder -6.363083 -11.407474 -15.642417
RightArm 10.681288 -15.416863 91.313899
RightForeArm 6.742746 -0.000000 18.256661
RightHand 5.610678 -0.000000 7.558300
RightHandThumb1 -24.326973 -0.000000 -32.862282
LeftUpLeg -19.196096 -8.939796 0.036972
LeftLeg 7.425345 -0.000000 -0.000000
LeftFoot -10.550214 10.622947 -16.002022
LeftToeBase -5.409531 -0.000000 0.000000
RightUpLeg -13.072969 -5.533300 -1.376278
RightLeg -1.720877 -0.000000 0.000000
RightFoot -8.323118 -4.245154 10.366858
RightToeBase 4.335511 -0.000000 -0.000000
1790
root 2.296964 32.791488 -9.659458 17.413109 1.856327 0.750051
Spine -15.737840 -4.931357 -2.532647
Head 13.110098 -5.398541 0.624849
LeftShoulder -18.378964 45.782787 5.980441
LeftArm 50.037156 15.198664 -80.309683
LeftForeArm -3.247033 -0.000000 17.774933
LeftHand 7.971510 -0.000000 1.173266
LeftHandThumb1 -26.253704 0.000000 33.147579
RightShoulder -6.410145 -11.435566 -15.702000
RightArm 10.572231 -15.220492 91.322536
RightForeArm 6.771943 0.000000 18.287129
RightHand 5.798494 -0.000000 7.420872
RightHandThumb1 -24.326973 -0.000000 -32.862282
LeftUpLeg -19.663534 -9.417427 0.204589
LeftLeg 8.207342 -0.000000 -0.000000
LeftFoot -10.908722 11.138175 -16.056846
LeftToeBase -5.303625 -0.000000 0.000000
RightUpLeg -13.197356 -5.543054 -1.342002
RightLeg -1.598080 -0.000000 0.000000
RightFoot -8.338296 -4.122645 10.548187
RightToeBase 4.383986 -0.000000 -0.000000
1791
root 2.282238 32.794232 -9.681290 17.392882 1.832005 0.699580
Spine -15.512371 -4.895229 -2.479939
Head 12.694186 -5.437586 0.805425
LeftShoulder -18.354784 45.737774 6.065560
LeftArm 50.153058 15.161458 -80.327213
LeftForeArm -3.147753 -0.000000 17.794454
LeftHand 8.102973 -0.000000 1.446578
LeftHandThumb1 -26.253704 0.000000 33.147579
RightShoulder -6.442182 -11.469302 -15.759100
RightArm 10.490007 -15.006885 91.297593
RightForeArm 6.825153 -0.000000 18.328344
RightHand 5.796648 0.000000 7.684315
RightHandThumb1 -24.326973 -0.000000 -32.862282
LeftUpLeg -20.090426 -9.810444 0.366851
LeftLeg 9.005101 -0.000000 -0.000000
LeftFoot -11.215296 11.603019 -16.038310
LeftToeBase -5.451497 -0.000000 0.000000
RightUpLeg -13.294447 -5.557704 -1.280996
RightLeg -1.433957 -0.000000 0.000000
RightFoot -8.381435 -3.967229 10.820875
RightToeBase 4.463533 -0.000000 -0.000000
1792
root 2.270541 32.795009 -9.700944 17.332606 1.786204 0.646316
Spine -15.237791 -4.854051 -2.427354
Head 12.278767 -5.415078 0.976806
LeftShoulder -18.284208 45.656499 6.211795
LeftArm 50.152275 15.087545 -80.385016
LeftForeArm -3.170308 -0.000000 17.927981
LeftHand 8.148582 -0.000000 1.607025
LeftHandThumb1 -26.253704 0.000000 33.147579
RightShoulder -6.473621 -11.518609 -15.848716
RightArm 10.452224 -14.862070 91.247550
RightForeArm 6.871833 -0.000000 18.366502
RightHand 5.971465 -0.000000 7.197315
RightHandThumb1 -24.326973 -0.000000 -32.862282
LeftUpLeg -20.477158 -10.184089 0.525693
LeftLeg 9.821676 -0.000000 -0.000000
LeftFoot -11.577410 11.991134 -16.083899
LeftToeBase -5.385903 -0.000000 0.000000
RightUpLeg -13.378339 -5.647875 -1.201940
RightLeg -1.222278 -0.000000 0.000000
RightFoot -8.437510 -3.748196 10.953424
RightToeBase 4.517990 -0.000000 -0.000000
